<svg width="710" height="439" viewBox="0 0 710 439" fill="none" xmlns="http://www.w3.org/2000/svg">
<path d="M0 87H474C561.261 87 632 157.739 632 245V281C632 368.261 561.261 439 474 439H0V87Z" fill="#5266DF"/>
<path d="M574 0H240C235.582 0 232 3.58172 232 8V338C232 342.418 235.582 346 240 346H574C578.418 346 582 342.418 582 338V8C582 3.58172 578.418 0 574 0Z" fill="#E8EAF6"/>
<mask id="mask0" mask-type="alpha" maskUnits="userSpaceOnUse" x="232" y="0" width="350" height="346">
<path d="M574 0H240C235.582 0 232 3.58172 232 8V338C232 342.418 235.582 346 240 346H574C578.418 346 582 342.418 582 338V8C582 3.58172 578.418 0 574 0Z" fill="white"/>
</mask>
<g mask="url(#mask0)">
<path fill-rule="evenodd" clip-rule="evenodd" d="M228.471 0.196991H775.471V59.197H228.471V0.196991Z" fill="#242A45"/>
<path opacity="0.245" d="M270.471 46.197C279.307 46.197 286.471 39.0335 286.471 30.197C286.471 21.3604 279.307 14.197 270.471 14.197C261.634 14.197 254.471 21.3604 254.471 30.197C254.471 39.0335 261.634 46.197 270.471 46.197Z" fill="white"/>
<path opacity="0.75" d="M418.471 20.197H304.471C302.814 20.197 301.471 21.5401 301.471 23.197C301.471 24.8538 302.814 26.197 304.471 26.197H418.471C420.128 26.197 421.471 24.8538 421.471 23.197C421.471 21.5401 420.128 20.197 418.471 20.197Z" fill="white"/>
<path opacity="0.25" d="M362.471 34.197H304.471C302.814 34.197 301.471 35.5401 301.471 37.197C301.471 38.8538 302.814 40.197 304.471 40.197H362.471C364.128 40.197 365.471 38.8538 365.471 37.197C365.471 35.5401 364.128 34.197 362.471 34.197Z" fill="white"/>
</g>
<g filter="url(#filter0_d)">
<path d="M451 138H267C262.582 138 259 141.582 259 146V385C259 389.418 262.582 393 267 393H451C455.418 393 459 389.418 459 385V146C459 141.582 455.418 138 451 138Z" fill="black"/>
</g>
<path d="M451 138H267C262.582 138 259 141.582 259 146V385C259 389.418 262.582 393 267 393H451C455.418 393 459 389.418 459 385V146C459 141.582 455.418 138 451 138Z" fill="white"/>
<path opacity="0.5" d="M426 173H330.683C329.026 173 327.683 174.343 327.683 176C327.683 177.657 329.026 179 330.683 179H426C427.656 179 429 177.657 429 176C429 174.343 427.656 173 426 173Z" fill="#242A45"/>
<path d="M298 199C306.837 199 314 191.837 314 183C314 174.163 306.837 167 298 167C289.163 167 282 174.163 282 183C282 191.837 289.163 199 298 199Z" fill="#5267DF"/>
<path opacity="0.25" d="M378.719 187H330.683C329.026 187 327.683 188.343 327.683 190C327.683 191.657 329.026 193 330.683 193H378.719C380.375 193 381.719 191.657 381.719 190C381.719 188.343 380.375 187 378.719 187Z" fill="#242A45"/>
<path d="M298 255C306.837 255 314 247.837 314 239C314 230.163 306.837 223 298 223C289.163 223 282 230.163 282 239C282 247.837 289.163 255 298 255Z" fill="#5267DF"/>
<path opacity="0.5" d="M426 229H330.683C329.026 229 327.683 230.343 327.683 232C327.683 233.657 329.026 235 330.683 235H426C427.656 235 429 233.657 429 232C429 230.343 427.656 229 426 229Z" fill="#242A45"/>
<path opacity="0.25" d="M378.719 243H330.683C329.026 243 327.683 244.343 327.683 246C327.683 247.657 329.026 249 330.683 249H378.719C380.375 249 381.719 247.657 381.719 246C381.719 244.343 380.375 243 378.719 243Z" fill="#242A45"/>
<path d="M298 311C306.837 311 314 303.837 314 295C314 286.163 306.837 279 298 279C289.163 279 282 286.163 282 295C282 303.837 289.163 311 298 311Z" fill="#5267DF"/>
<path opacity="0.5" d="M426 285H330.683C329.026 285 327.683 286.343 327.683 288C327.683 289.657 329.026 291 330.683 291H426C427.656 291 429 289.657 429 288C429 286.343 427.656 285 426 285Z" fill="#242A45"/>
<path opacity="0.25" d="M378.719 299H330.683C329.026 299 327.683 300.343 327.683 302C327.683 303.657 329.026 305 330.683 305H378.719C380.375 305 381.719 303.657 381.719 302C381.719 300.343 380.375 299 378.719 299Z" fill="#242A45"/>
<path d="M298 367C306.837 367 314 359.837 314 351C314 342.163 306.837 335 298 335C289.163 335 282 342.163 282 351C282 359.837 289.163 367 298 367Z" fill="#5267DF"/>
<path opacity="0.5" d="M426 341H330.683C329.026 341 327.683 342.343 327.683 344C327.683 345.657 329.026 347 330.683 347H426C427.656 347 429 345.657 429 344C429 342.343 427.656 341 426 341Z" fill="#242A45"/>
<path opacity="0.25" d="M378.719 355H330.683C329.026 355 327.683 356.343 327.683 358C327.683 359.657 329.026 361 330.683 361H378.719C380.375 361 381.719 359.657 381.719 358C381.719 356.343 380.375 355 378.719 355Z" fill="#242A45"/>
<g filter="url(#filter1_d)">
<g filter="url(#filter2_d)">
<path d="M675 138H491C486.582 138 483 141.582 483 146V385C483 389.418 486.582 393 491 393H675C679.418 393 683 389.418 683 385V146C683 141.582 679.418 138 675 138Z" fill="black"/>
</g>
<path d="M675 138H491C486.582 138 483 141.582 483 146V385C483 389.418 486.582 393 491 393H675C679.418 393 683 389.418 683 385V146C683 141.582 679.418 138 675 138Z" fill="white"/>
<path opacity="0.5" d="M650 173H554.683C553.026 173 551.683 174.343 551.683 176C551.683 177.657 553.026 179 554.683 179H650C651.657 179 653 177.657 653 176C653 174.343 651.657 173 650 173Z" fill="#242A45"/>
<path d="M522 199C530.837 199 538 191.837 538 183C538 174.163 530.837 167 522 167C513.163 167 506 174.163 506 183C506 191.837 513.163 199 522 199Z" fill="#5267DF"/>
<path opacity="0.25" d="M602.719 187H554.683C553.026 187 551.683 188.343 551.683 190C551.683 191.657 553.026 193 554.683 193H602.719C604.376 193 605.719 191.657 605.719 190C605.719 188.343 604.376 187 602.719 187Z" fill="#242A45"/>
<path d="M522 255C530.837 255 538 247.837 538 239C538 230.163 530.837 223 522 223C513.163 223 506 230.163 506 239C506 247.837 513.163 255 522 255Z" fill="#FA5959"/>
<path opacity="0.5" d="M650 229H554.683C553.026 229 551.683 230.343 551.683 232C551.683 233.657 553.026 235 554.683 235H650C651.657 235 653 233.657 653 232C653 230.343 651.657 229 650 229Z" fill="#242A45"/>
<path opacity="0.25" d="M602.719 243H554.683C553.026 243 551.683 244.343 551.683 246C551.683 247.657 553.026 249 554.683 249H602.719C604.376 249 605.719 247.657 605.719 246C605.719 244.343 604.376 243 602.719 243Z" fill="#242A45"/>
<path d="M522 311C530.837 311 538 303.837 538 295C538 286.163 530.837 279 522 279C513.163 279 506 286.163 506 295C506 303.837 513.163 311 522 311Z" fill="#5267DF"/>
<path opacity="0.5" d="M650 285H554.683C553.026 285 551.683 286.343 551.683 288C551.683 289.657 553.026 291 554.683 291H650C651.657 291 653 289.657 653 288C653 286.343 651.657 285 650 285Z" fill="#242A45"/>
<path opacity="0.25" d="M602.719 299H554.683C553.026 299 551.683 300.343 551.683 302C551.683 303.657 553.026 305 554.683 305H602.719C604.376 305 605.719 303.657 605.719 302C605.719 300.343 604.376 299 602.719 299Z" fill="#242A45"/>
<path d="M522 367C530.837 367 538 359.837 538 351C538 342.163 530.837 335 522 335C513.163 335 506 342.163 506 351C506 359.837 513.163 367 522 367Z" fill="#5267DF"/>
<path opacity="0.5" d="M650 341H554.683C553.026 341 551.683 342.343 551.683 344C551.683 345.657 553.026 347 554.683 347H650C651.657 347 653 345.657 653 344C653 342.343 651.657 341 650 341Z" fill="#242A45"/>
<path opacity="0.25" d="M602.719 355H554.683C553.026 355 551.683 356.343 551.683 358C551.683 359.657 553.026 361 554.683 361H602.719C604.376 361 605.719 359.657 605.719 358C605.719 356.343 604.376 355 602.719 355Z" fill="#242A45"/>
</g>
<path d="M488 85H267C262.582 85 259 88.5817 259 93V111C259 115.418 262.582 119 267 119H488C492.418 119 496 115.418 496 111V93C496 88.5817 492.418 85 488 85Z" fill="white"/>
<path d="M604 236C641.003 236 671 206.003 671 169C671 131.997 641.003 102 604 102C566.997 102 537 131.997 537 169C537 206.003 566.997 236 604 236Z" fill="#495DCF" fill-opacity="0.2" stroke="#5267DF" stroke-width="20"/>
<path d="M651 217L700 266" stroke="#5267DF" stroke-width="20" stroke-linecap="round" stroke-linejoin="round"/>
<defs>
<filter id="filter0_d" x="249" y="133" width="220" height="275" filterUnits="userSpaceOnUse" color-interpolation-filters="sRGB">
<feFlood flood-opacity="0" result="BackgroundImageFix"/>
<feColorMatrix in="SourceAlpha" type="matrix" values="0 0 0 0 0 0 0 0 0 0 0 0 0 0 0 0 0 0 127 0"/>
<feOffset dy="5"/>
<feGaussianBlur stdDeviation="5"/>
<feColorMatrix type="matrix" values="0 0 0 0 0.285333 0 0 0 0 0.363695 0 0 0 0 0.811481 0 0 0 0.0830693 0"/>
<feBlend mode="normal" in2="BackgroundImageFix" result="effect1_dropShadow"/>
<feBlend mode="normal" in="SourceGraphic" in2="effect1_dropShadow" result="shape"/>
</filter>
<filter id="filter1_d" x="473" y="133" width="220" height="275" filterUnits="userSpaceOnUse" color-interpolation-filters="sRGB">
<feFlood flood-opacity="0" result="BackgroundImageFix"/>
<feColorMatrix in="SourceAlpha" type="matrix" values="0 0 0 0 0 0 0 0 0 0 0 0 0 0 0 0 0 0 127 0"/>
<feOffset dy="5"/>
<feGaussianBlur stdDeviation="5"/>
<feColorMatrix type="matrix" values="0 0 0 0 0.285333 0 0 0 0 0.363695 0 0 0 0 0.811481 0 0 0 0.0830693 0"/>
<feBlend mode="normal" in2="BackgroundImageFix" result="effect1_dropShadow"/>
<feBlend mode="normal" in="SourceGraphic" in2="effect1_dropShadow" result="shape"/>
</filter>
<filter id="filter2_d" x="473" y="133" width="220" height="275" filterUnits="userSpaceOnUse" color-interpolation-filters="sRGB">
<feFlood flood-opacity="0" result="BackgroundImageFix"/>
<feColorMatrix in="SourceAlpha" type="matrix" values="0 0 0 0 0 0 0 0 0 0 0 0 0 0 0 0 0 0 127 0"/>
<feOffset dy="5"/>
<feGaussianBlur stdDeviation="5"/>
<feColorMatrix type="matrix" values="0 0 0 0 0.285333 0 0 0 0 0.363695 0 0 0 0 0.811481 0 0 0 0.0830693 0"/>
<feBlend mode="normal" in2="BackgroundImageFix" result="effect1_dropShadow"/>
<feBlend mode="normal" in="SourceGraphic" in2="effect1_dropShadow" result="shape"/>
</filter>
</defs>
</svg>
