<svg width="644" height="445" viewBox="0 0 644 445" fill="none" xmlns="http://www.w3.org/2000/svg">
<path d="M514 269.5C514 172.574 435.426 94 338.5 94H0V445H338.5C435.426 445 514 366.426 514 269.5Z" fill="#4D61D2"/>
<mask id="mask0" mask-type="alpha" maskUnits="userSpaceOnUse" x="108" y="0" width="536" height="346">
<path d="M636 0H116C111.582 0 108 3.58172 108 8V338C108 342.418 111.582 346 116 346H636C640.418 346 644 342.418 644 338V8C644 3.58172 640.418 0 636 0Z" fill="white"/>
</mask>
<g mask="url(#mask0)">
<path d="M636 0H116C111.582 0 108 3.58172 108 8V338C108 342.418 111.582 346 116 346H636C640.418 346 644 342.418 644 338V8C644 3.58172 640.418 0 636 0Z" fill="#E8EAF6"/>
<path fill-rule="evenodd" clip-rule="evenodd" d="M104.47 0.197021H651.47V59.197H104.47V0.197021Z" fill="#242A45"/>
<path opacity="0.245" d="M146.47 46.197C155.306 46.197 162.47 39.0336 162.47 30.197C162.47 21.3605 155.306 14.197 146.47 14.197C137.633 14.197 130.47 21.3605 130.47 30.197C130.47 39.0336 137.633 46.197 146.47 46.197Z" fill="white"/>
<path opacity="0.104" d="M607.47 46.197C616.306 46.197 623.47 39.0336 623.47 30.197C623.47 21.3605 616.306 14.197 607.47 14.197C598.633 14.197 591.47 21.3605 591.47 30.197C591.47 39.0336 598.633 46.197 607.47 46.197Z" fill="white"/>
<path opacity="0.75" d="M294.47 20.197H180.47C178.813 20.197 177.47 21.5402 177.47 23.197C177.47 24.8539 178.813 26.197 180.47 26.197H294.47C296.127 26.197 297.47 24.8539 297.47 23.197C297.47 21.5402 296.127 20.197 294.47 20.197Z" fill="white"/>
<path opacity="0.25" d="M238.47 34.197H180.47C178.813 34.197 177.47 35.5402 177.47 37.197C177.47 38.8539 178.813 40.197 180.47 40.197H238.47C240.127 40.197 241.47 38.8539 241.47 37.197C241.47 35.5402 240.127 34.197 238.47 34.197Z" fill="white"/>
<path d="M418 93H173C168.582 93 165 96.5817 165 101V401C165 405.418 168.582 409 173 409H418C422.418 409 426 405.418 426 401V101C426 96.5817 422.418 93 418 93Z" fill="white"/>
<path d="M580 93H468C463.582 93 460 96.5817 460 101V401C460 405.418 463.582 409 468 409H580C584.418 409 588 405.418 588 401V101C588 96.5817 584.418 93 580 93Z" fill="white"/>
<path opacity="0.5" d="M360.47 131.197H246.47C244.813 131.197 243.47 132.54 243.47 134.197C243.47 135.854 244.813 137.197 246.47 137.197H360.47C362.127 137.197 363.47 135.854 363.47 134.197C363.47 132.54 362.127 131.197 360.47 131.197Z" fill="#242A45"/>
<path d="M212.47 157.197C221.306 157.197 228.47 150.034 228.47 141.197C228.47 132.36 221.306 125.197 212.47 125.197C203.633 125.197 196.47 132.36 196.47 141.197C196.47 150.034 203.633 157.197 212.47 157.197Z" fill="#F98E5D"/>
<path opacity="0.25" d="M565.47 115.197H483.47C481.813 115.197 480.47 116.54 480.47 118.197C480.47 119.854 481.813 121.197 483.47 121.197H565.47C567.127 121.197 568.47 119.854 568.47 118.197C568.47 116.54 567.127 115.197 565.47 115.197Z" fill="#242A45"/>
<path opacity="0.25" d="M565.47 135.197H483.47C481.813 135.197 480.47 136.54 480.47 138.197C480.47 139.854 481.813 141.197 483.47 141.197H565.47C567.127 141.197 568.47 139.854 568.47 138.197C568.47 136.54 567.127 135.197 565.47 135.197Z" fill="#242A45"/>
<path opacity="0.25" d="M565.47 155.197H483.47C481.813 155.197 480.47 156.54 480.47 158.197C480.47 159.854 481.813 161.197 483.47 161.197H565.47C567.127 161.197 568.47 159.854 568.47 158.197C568.47 156.54 567.127 155.197 565.47 155.197Z" fill="#242A45"/>
<path opacity="0.25" d="M565.47 175.197H483.47C481.813 175.197 480.47 176.54 480.47 178.197C480.47 179.854 481.813 181.197 483.47 181.197H565.47C567.127 181.197 568.47 179.854 568.47 178.197C568.47 176.54 567.127 175.197 565.47 175.197Z" fill="#242A45"/>
<path opacity="0.25" d="M565.47 209.197H483.47C481.813 209.197 480.47 210.54 480.47 212.197C480.47 213.854 481.813 215.197 483.47 215.197H565.47C567.127 215.197 568.47 213.854 568.47 212.197C568.47 210.54 567.127 209.197 565.47 209.197Z" fill="#242A45"/>
<path opacity="0.25" d="M565.47 229.197H483.47C481.813 229.197 480.47 230.54 480.47 232.197C480.47 233.854 481.813 235.197 483.47 235.197H565.47C567.127 235.197 568.47 233.854 568.47 232.197C568.47 230.54 567.127 229.197 565.47 229.197Z" fill="#242A45"/>
<path opacity="0.25" d="M565.47 249.197H483.47C481.813 249.197 480.47 250.54 480.47 252.197C480.47 253.854 481.813 255.197 483.47 255.197H565.47C567.127 255.197 568.47 253.854 568.47 252.197C568.47 250.54 567.127 249.197 565.47 249.197Z" fill="#242A45"/>
<path opacity="0.25" d="M304.47 145.197H246.47C244.813 145.197 243.47 146.54 243.47 148.197C243.47 149.854 244.813 151.197 246.47 151.197H304.47C306.127 151.197 307.47 149.854 307.47 148.197C307.47 146.54 306.127 145.197 304.47 145.197Z" fill="#242A45"/>
<path d="M212.47 213.197C221.306 213.197 228.47 206.034 228.47 197.197C228.47 188.36 221.306 181.197 212.47 181.197C203.633 181.197 196.47 188.36 196.47 197.197C196.47 206.034 203.633 213.197 212.47 213.197Z" fill="#6AC6D6"/>
<path opacity="0.5" d="M360.47 187.197H246.47C244.813 187.197 243.47 188.54 243.47 190.197C243.47 191.854 244.813 193.197 246.47 193.197H360.47C362.127 193.197 363.47 191.854 363.47 190.197C363.47 188.54 362.127 187.197 360.47 187.197Z" fill="#242A45"/>
<path opacity="0.25" d="M304.47 201.197H246.47C244.813 201.197 243.47 202.54 243.47 204.197C243.47 205.854 244.813 207.197 246.47 207.197H304.47C306.127 207.197 307.47 205.854 307.47 204.197C307.47 202.54 306.127 201.197 304.47 201.197Z" fill="#242A45"/>
<path d="M212.47 269.197C221.306 269.197 228.47 262.034 228.47 253.197C228.47 244.36 221.306 237.197 212.47 237.197C203.633 237.197 196.47 244.36 196.47 253.197C196.47 262.034 203.633 269.197 212.47 269.197Z" fill="#A47ED4"/>
<path opacity="0.5" d="M360.47 243.197H246.47C244.813 243.197 243.47 244.54 243.47 246.197C243.47 247.854 244.813 249.197 246.47 249.197H360.47C362.127 249.197 363.47 247.854 363.47 246.197C363.47 244.54 362.127 243.197 360.47 243.197Z" fill="#242A45"/>
<path opacity="0.25" d="M304.47 257.197H246.47C244.813 257.197 243.47 258.54 243.47 260.197C243.47 261.854 244.813 263.197 246.47 263.197H304.47C306.127 263.197 307.47 261.854 307.47 260.197C307.47 258.54 306.127 257.197 304.47 257.197Z" fill="#242A45"/>
<path d="M212.47 325.197C221.306 325.197 228.47 318.034 228.47 309.197C228.47 300.36 221.306 293.197 212.47 293.197C203.633 293.197 196.47 300.36 196.47 309.197C196.47 318.034 203.633 325.197 212.47 325.197Z" fill="#EC7878"/>
<path opacity="0.5" d="M360.47 299.197H246.47C244.813 299.197 243.47 300.54 243.47 302.197C243.47 303.854 244.813 305.197 246.47 305.197H360.47C362.127 305.197 363.47 303.854 363.47 302.197C363.47 300.54 362.127 299.197 360.47 299.197Z" fill="#242A45"/>
<path opacity="0.25" d="M304.47 313.197H246.47C244.813 313.197 243.47 314.54 243.47 316.197C243.47 317.854 244.813 319.197 246.47 319.197H304.47C306.127 319.197 307.47 317.854 307.47 316.197C307.47 314.54 306.127 313.197 304.47 313.197Z" fill="#242A45"/>
</g>
</svg>
