<svg width="685" height="438" viewBox="0 0 685 438" fill="none" xmlns="http://www.w3.org/2000/svg">
<path d="M0 86H474C561.261 86 632 156.739 632 244V280C632 367.261 561.261 438 474 438H0V86Z" fill="#5266DF"/>
<path d="M587 0H253C248.582 0 245 3.58172 245 8V338C245 342.418 248.582 346 253 346H587C591.418 346 595 342.418 595 338V8C595 3.58172 591.418 0 587 0Z" fill="#E8EAF6"/>
<mask id="mask0" mask-type="alpha" maskUnits="userSpaceOnUse" x="245" y="0" width="350" height="346">
<path d="M587 0H253C248.582 0 245 3.58172 245 8V338C245 342.418 248.582 346 253 346H587C591.418 346 595 342.418 595 338V8C595 3.58172 591.418 0 587 0Z" fill="white"/>
</mask>
<g mask="url(#mask0)">
<path fill-rule="evenodd" clip-rule="evenodd" d="M241.47 0.197021H788.47V59.197H241.47V0.197021Z" fill="#242A45"/>
<path opacity="0.245" d="M283.47 46.197C292.306 46.197 299.47 39.0336 299.47 30.197C299.47 21.3605 292.306 14.197 283.47 14.197C274.633 14.197 267.47 21.3605 267.47 30.197C267.47 39.0336 274.633 46.197 283.47 46.197Z" fill="white"/>
<path opacity="0.75" d="M431.47 20.197H317.47C315.813 20.197 314.47 21.5402 314.47 23.197C314.47 24.8539 315.813 26.197 317.47 26.197H431.47C433.127 26.197 434.47 24.8539 434.47 23.197C434.47 21.5402 433.127 20.197 431.47 20.197Z" fill="white"/>
<path opacity="0.25" d="M375.47 34.197H317.47C315.813 34.197 314.47 35.5402 314.47 37.197C314.47 38.8539 315.813 40.197 317.47 40.197H375.47C377.127 40.197 378.47 38.8539 378.47 37.197C378.47 35.5402 377.127 34.197 375.47 34.197Z" fill="white"/>
</g>
<path d="M501 85H280C275.582 85 272 88.5817 272 93V111C272 115.418 275.582 119 280 119H501C505.418 119 509 115.418 509 111V93C509 88.5817 505.418 85 501 85Z" fill="white"/>
<path d="M501 133H280C275.582 133 272 136.582 272 141V159C272 163.418 275.582 167 280 167H501C505.418 167 509 163.418 509 159V141C509 136.582 505.418 133 501 133Z" fill="white"/>
<path d="M501 181H280C275.582 181 272 184.582 272 189V207C272 211.418 275.582 215 280 215H501C505.418 215 509 211.418 509 207V189C509 184.582 505.418 181 501 181Z" fill="white"/>
<path d="M501 229H280C275.582 229 272 232.582 272 237V255C272 259.418 275.582 263 280 263H501C505.418 263 509 259.418 509 255V237C509 232.582 505.418 229 501 229Z" fill="white"/>
<path d="M501 277H280C275.582 277 272 280.582 272 285V303C272 307.418 275.582 311 280 311H501C505.418 311 509 307.418 509 303V285C509 280.582 505.418 277 501 277Z" fill="white"/>
<mask id="mask1" mask-type="alpha" maskUnits="userSpaceOnUse" x="335" y="83" width="350" height="296">
<path d="M685 83.048H335.219V379H685V83.048Z" fill="white"/>
</mask>
<g mask="url(#mask1)">
<path fill-rule="evenodd" clip-rule="evenodd" d="M336.293 333.34C336.963 335.358 338.008 337.338 339.467 339.275C364.669 372.749 458.843 383.907 551.691 377.089C600.167 373.527 634.361 352.563 655.972 333.339C660.658 329.173 665.118 324.759 669.332 320.117C674.001 314.972 677.645 309.257 680.242 303.222C687.889 285.444 686.416 264.906 675.119 248.061C665.542 233.785 652.397 223.237 645.606 211.518C632.674 189.2 701.043 132.782 656.552 97.138C640.848 84.554 607.392 81.65 570.89 83.602C526.462 85.98 477.525 95.557 450.606 103.647C394.894 120.384 360.026 144.627 352.067 171.903C344.109 199.179 365.378 211.521 383.947 237.557C401.442 262.083 325.394 300.554 336.293 333.34" fill="#3A499E"/>
<path fill-rule="evenodd" clip-rule="evenodd" d="M430.451 173.872L447.436 171L450 186.799L429 193L430.451 173.872Z" fill="#306299"/>
<path fill-rule="evenodd" clip-rule="evenodd" d="M448 172.118C448 172.118 461.176 171.77 475 166L468.504 178.254L449.751 184L448 172.118Z" fill="#FA9E89"/>
<mask id="mask2" mask-type="alpha" maskUnits="userSpaceOnUse" x="525" y="85" width="158" height="220">
<path d="M683 85.048H525.175V304.892H683V85.048Z" fill="white"/>
</mask>
<g mask="url(#mask2)">
<path opacity="0.152" fill-rule="evenodd" clip-rule="evenodd" d="M525.934 137.186C534.046 177.345 671.94 238.876 678.57 304.892C685.688 287.14 684.317 266.634 673.8 249.814C664.886 235.559 652.65 225.027 646.329 213.325C634.29 191.043 697.934 134.707 656.519 99.117C641.9 86.552 610.758 83.652 576.779 85.602C566.435 87.966 518.615 100.933 525.934 137.186Z" fill="white"/>
</g>
<path opacity="0.149" fill-rule="evenodd" clip-rule="evenodd" d="M333.18 326C332.195 333.866 335.52 339.336 336.82 341.227C359.249 373.899 481.314 384.79 563.95 378.135C607.096 374.659 642.455 352.42 664 327.915L333.18 326Z" fill="black"/>
<path opacity="0.128" fill-rule="evenodd" clip-rule="evenodd" d="M611.373 329.812C611.373 329.812 621.45 330.422 621.295 333.472C621.14 336.522 614.784 343.23 614.784 343.23L624.293 339.825L653 338.732L649.9 341.401C649.9 341.401 626.773 342.468 625.74 343.281C624.706 344.094 611.476 354.057 609.203 354.463C606.929 354.87 462.515 354.688 462.515 354.688C462.515 354.688 447.657 355.277 445.176 350.702C442.696 346.128 433.704 346.432 431.223 350.397C428.743 354.362 429.087 369 429.087 369C429.087 369 422.294 367.227 421.921 367.069C398.356 357.106 372 326 372 326L611.373 329.812V329.812Z" fill="black"/>
<path fill-rule="evenodd" clip-rule="evenodd" d="M642 290.695L627.55 339.858C627.55 339.858 625.494 342.302 624 340.038L633.714 290L642 290.695ZM661.866 289L669 322.138L665.603 326L656 289.954L661.866 289Z" fill="#162F44"/>
<path fill-rule="evenodd" clip-rule="evenodd" d="M449.507 300.082L443.482 334.282L442.483 339.951L444.675 340.273L444.831 340.297L449.619 341C449.619 341 465.59 301.656 466.949 292.213C468.31 282.77 441.804 245 441.804 245L413.036 247.448C412.275 255.667 423.78 271.159 434.063 283.218C442.164 292.717 449.507 300.082 449.507 300.082" fill="#F4F2F9"/>
<path fill-rule="evenodd" clip-rule="evenodd" d="M449.12 298.535L442.243 338.302L444.389 338.623L444.462 339L444.542 338.648C445.417 334.818 455.682 300.911 455.994 294C456.327 286.674 441.967 264 441.967 264L434 281.714C441.93 291.188 449.12 298.534 449.12 298.534" fill="#E0DFEA"/>
<path fill-rule="evenodd" clip-rule="evenodd" d="M411 249L439.667 246.613L441 198.886C441 198.886 434 174 426.333 174C421.78 174 417.347 175.804 414.633 180.195C412.78 183.198 411.73 187.415 412 193.091C412.61 205.868 411.27 241.998 411.033 248.113C411.013 248.69 411 249 411 249" fill="#6397D9"/>
<path fill-rule="evenodd" clip-rule="evenodd" d="M418.885 245.276L418.347 188.458L425 174.938L417.237 174L414.508 177.21C412.718 180.213 411.705 184.43 411.966 190.104C412.555 202.878 411.229 239.886 411 246L418.885 245.276V245.276Z" fill="#8BBFF7"/>
<path fill-rule="evenodd" clip-rule="evenodd" d="M419 190L440.017 230L440.563 212.009L441 197.411L423.476 190H419Z" fill="#306299"/>
<path fill-rule="evenodd" clip-rule="evenodd" d="M472.671 353H601.33C606.119 353 610.001 349.092 610.001 344.27V123.73C610.001 118.908 606.119 115 601.33 115H472.67C467.881 115 463.999 118.908 463.999 123.73V344.27C463.999 349.092 467.881 353 472.67 353" fill="white"/>
<path fill-rule="evenodd" clip-rule="evenodd" d="M472 146.29V234.71C472 236.528 473.456 238 475.253 238H598.747C600.544 238 602 236.528 602 234.71V146.29C602 144.472 600.544 143 598.747 143H475.253C473.456 143 472 144.472 472 146.29Z" fill="#E4DCF1"/>
<path fill-rule="evenodd" clip-rule="evenodd" d="M536.147 167L537.699 168.183L541 182.554L540.929 184.921L535.702 185C535.347 185.005 534.989 184.935 534.672 184.75C533.177 183.872 532.539 181.425 533.364 179.257C533.808 178.091 534.945 176.027 535.077 175.115C535.391 172.931 536.147 167 536.147 167" fill="#8E2B43"/>
<path fill-rule="evenodd" clip-rule="evenodd" d="M509 241L563.224 240.792L565.019 240.786C565.019 240.786 571.506 210.137 561.003 198.325C558.445 195.451 555.12 193.332 551.497 191.955C540.224 187.658 526.044 190.5 523.004 199.921C518.988 212.372 509 241 509 241Z" fill="#4EC9B4"/>
<path fill-rule="evenodd" clip-rule="evenodd" d="M551.16 192.489C551.16 192.489 548.945 198.515 544.057 199.783C539.169 201.052 533.568 196.559 534.027 191.326C534.027 191.326 538.711 190.639 539.474 188.366C540.402 185.606 539.78 185.512 539.78 185.512C539.78 185.512 537.947 182.022 537.336 179.486C536.725 176.949 537.641 167.116 541.918 166.166C544.623 165.564 548.945 166.483 552 170.923C552 170.923 550.472 179.486 548.334 183.609C546.195 187.732 545.126 189.635 551.16 192.489Z" fill="#FA9E89"/>
<path opacity="0.184" fill-rule="evenodd" clip-rule="evenodd" d="M475.167 116.013L608 302.239V344.483C608 349.187 604.3 353 599.737 353H479.573C474.286 353 470 348.582 470 343.131V119.827C470 116.898 472.33 115.871 475.167 116.013" fill="#F4F2F9"/>
<path fill-rule="evenodd" clip-rule="evenodd" d="M515 222.442L508.018 192L497 193.816L507.684 238L515 222.442Z" fill="#4EC9B4"/>
<path fill-rule="evenodd" clip-rule="evenodd" d="M505.8 191.137L505.2 188.031C505.2 188.031 507 186.847 506.7 185.072C506.4 183.297 507 179.155 507 179.155C507 179.155 506.043 178.508 505.425 179.673C504.985 180.502 504.3 182.41 504.3 182.41C504.3 182.41 502.004 176.244 501.474 174.62C501.249 173.929 501.022 172.853 500.499 173.017C500.224 173.103 500.324 173.732 500.371 174.347C500.511 176.191 501.299 179.131 501.299 179.131L500.899 179.365L499.236 174.089C499.163 173.833 499.043 173.445 498.774 173.424C498.536 173.404 498.299 173.534 498.299 174.126C498.299 175.31 499.574 180.203 499.574 180.203L499.255 180.422L497.32 176.144C497.187 175.821 496.707 175.849 496.625 176.188C496.56 176.456 496.579 176.838 496.798 177.38C497.398 178.86 497.998 181.226 497.998 181.226L497.848 181.399L496.798 179.229C496.61 178.882 496.149 178.659 496.015 179.029C495.827 179.547 497.473 183.999 497.473 184.296C497.473 184.592 498.599 188.622 499.799 188.918C500.999 189.214 501.074 192 501.074 192L505.8 191.137V191.137Z" fill="#FA9E89"/>
<path fill-rule="evenodd" clip-rule="evenodd" d="M575.351 264H597.65C598.948 264 600.001 262.928 600.001 261.606V258.394C600.001 257.072 598.948 256 597.65 256H575.352C574.054 256 573.001 257.072 573.001 258.394V261.606C573.001 262.928 574.054 264 575.352 264H575.351ZM543.352 264H565.65C566.948 264 568.001 262.928 568.001 261.606V258.394C568.001 257.072 566.948 256 565.65 256H543.352C542.054 256 541.001 257.072 541.001 258.394V261.606C541.001 262.928 542.054 264 543.352 264ZM509.352 264H531.65C532.948 264 534.001 262.928 534.001 261.606V258.394C534.001 257.072 532.948 256 531.65 256H509.353C508.054 256 507.001 257.072 507.001 258.394V261.606C507.001 262.928 508.054 264 509.353 264H509.352ZM477.353 264H499.65C500.948 264 502.001 262.928 502.001 261.606V258.394C502.001 257.072 500.948 256 499.65 256H477.352C476.054 256 475.001 257.072 475.001 258.394V261.606C475.001 262.928 476.054 264 477.352 264" fill="#FFDEDD"/>
<path fill-rule="evenodd" clip-rule="evenodd" d="M479.547 283H597.453C598.86 283 600 281.92 600 280.59V277.41C600 276.08 598.86 275 597.453 275H479.547C478.14 275 477 276.08 477 277.41V280.59C477 281.92 478.14 283 479.547 283ZM597.453 299C598.86 299 600 297.92 600 296.59V293.41C600 292.08 598.86 291 597.453 291H479.547C478.14 291 477 292.08 477 293.41V296.59C477 297.92 478.14 299 479.547 299H597.453ZM479.547 315H597.453C598.86 315 600 313.92 600 312.59V309.41C600 308.08 598.86 307 597.453 307H479.547C478.14 307 477 308.08 477 309.41V312.59C477 313.92 478.14 315 479.547 315ZM479.547 328H597.453C598.86 328 600 326.92 600 325.59V322.41C600 321.08 598.86 320 597.453 320H479.547C478.14 320 477 321.08 477 322.41V325.59C477 326.92 478.14 328 479.547 328Z" fill="#F4F2F9"/>
<path fill-rule="evenodd" clip-rule="evenodd" d="M554.222 163.321C554.222 163.321 547.922 154.473 536.032 159.596C524.144 164.718 537.049 173.1 537.049 173.1C537.049 173.1 537.303 169.84 539.183 168.909L539.03 171.806L545.686 172.971L546.753 170.177L547.439 173.359L550.792 174.6C550.792 174.6 548.049 184.224 546.448 185.621C546.448 185.621 545.762 187.871 545.991 188.337C546.219 188.803 556.355 191.364 557.651 189.036C558.947 186.708 556.279 183.448 555.441 181.275C554.603 179.102 556.965 167.564 554.221 163.321" fill="#FC516B"/>
<path fill-rule="evenodd" clip-rule="evenodd" d="M583.352 139H600.648C601.947 139 603 137.657 603 136C603 134.343 601.947 133 600.648 133H583.352C582.053 133 581 134.343 581 136C581 137.657 582.053 139 583.352 139Z" fill="#E4DCF1"/>
<path fill-rule="evenodd" clip-rule="evenodd" d="M557 211C557 211 554.336 230.286 551.29 238H535.23C535.23 238 532.582 229.862 545.277 227.2C554.107 225.349 557 211 557 211ZM525.389 206C525.389 206 522.129 216 522.741 219C523.351 222 526 224.2 526 226.2C526 228.2 524.37 235.8 524.37 235.8L515 236C515 236 516.556 235.734 520.093 232.95C525.491 228.7 520.857 219.325 522.003 214C522.603 211.206 525.389 206 525.389 206V206ZM515 221.772C515 221.772 514.787 230.155 513.085 228.865C511.383 227.575 512.447 215.108 510.958 210.809C509.468 206.509 505 192.752 505 192.752L508.83 192L515 221.772Z" fill="#44AD99"/>
<path fill-rule="evenodd" clip-rule="evenodd" d="M489.623 183.475C489.623 183.475 488.047 184.167 486.123 186.521C485.487 187.301 482.093 188.542 481.29 189.509C469.645 203.529 454.094 214.35 444.127 210.042C431.397 204.54 429 199.424 429 199.424L437.414 188.062C437.414 188.062 447.077 202.821 454.848 198.801C462.62 194.781 477.94 184.244 477.94 184.244L478.346 177.78C478.346 177.78 479.241 177.54 479.67 178.775C480.1 180.011 480.12 181.079 480.12 181.079L486.169 174.055C486.169 174.055 487.331 173.695 486.977 174.824C486.623 175.954 484.486 179.192 484.486 179.192C484.486 179.192 484.266 179.808 484.729 179.527C485.269 179.2 489.495 174.435 489.495 174.435C489.495 174.435 490.468 174.371 490.071 175.301C489.764 176.018 487.206 179.391 486.341 180.655C486.083 181.031 486.623 180.89 486.623 180.89L490.119 177.92C490.592 177.601 491.082 177.707 490.989 178.288C490.914 178.748 489.962 179.807 489.396 180.227C487.982 181.273 486.996 183.179 486.996 183.179L490.04 182.079C490.04 182.079 490.635 182.607 489.623 183.475V183.475ZM418 146.49L421.85 174.81L434.496 177C434.496 177 433.856 176.332 433.124 175.44C432.376 174.533 431.534 173.39 431.161 172.474C430.311 170.37 430.305 168.408 430.305 168.408C430.305 168.408 435.913 169.041 436.782 165.813C437.654 162.581 435.639 147.529 435.639 147.529C435.639 147.529 433.136 138.07 418 146.49Z" fill="#FA9E89"/>
<path fill-rule="evenodd" clip-rule="evenodd" d="M428.613 146.812C428.613 146.812 434.849 151.522 440.832 147.51C440.832 147.51 437.04 147.16 435.86 145.242C435.86 145.242 438.22 145.852 441 141.928C441 141.928 436.113 142.626 434.428 141.143C432.742 139.66 424.148 137.305 419.008 140.881C413.867 144.457 413.951 147.074 413.951 147.074C413.951 147.074 410.918 148.207 411.001 149.952C411.086 151.696 418.501 166 418.501 166L420.102 159.633C420.102 159.633 418.838 160.011 418.08 157.046C417.322 154.08 420.608 155.359 420.945 155.97C421.282 156.58 423.473 151.783 423.473 151.783L423.136 148.993C423.136 148.993 422.04 145.416 428.613 146.813" fill="#261F27"/>
<path fill-rule="evenodd" clip-rule="evenodd" d="M416.786 279.384C420.377 293.871 413.736 351.793 413.736 351.793L420.234 353C446.394 292.985 440.41 244 440.41 244L411 246.414C411 246.414 411.075 245.19 411.106 245.48C411.444 248.488 413.514 266.169 416.786 279.384" fill="white"/>
<path fill-rule="evenodd" clip-rule="evenodd" d="M449.27 337.076L456.823 342.935C456.823 342.935 459.798 342.576 460.371 343.951C460.943 345.326 461 346.881 461 346.881L453.104 347L440 341.799L442.06 336L449.27 337.076ZM419.45 354.34C419.45 354.34 422.122 358.662 424.815 362.192C425.72 363.378 427.932 363.893 428.793 366.787C429.533 369.277 428.053 371 428.053 371C428.053 371 423.088 370.106 419.634 367.043C416.181 363.979 411 358.106 411 358.106L412.418 353L419.449 354.34H419.45Z" fill="#6397D9"/>
<path fill-rule="evenodd" clip-rule="evenodd" d="M619 282C619 285.866 631.984 289 648 289C664.016 289 677 285.866 677 282C677 278.134 664.016 275 648 275C631.984 275 619 278.134 619 282Z" fill="#224A7D"/>
<path fill-rule="evenodd" clip-rule="evenodd" d="M619 281C619 284.866 631.984 288 648 288C664.016 288 677 284.866 677 281C677 277.134 664.016 274 648 274C631.984 274 619 277.134 619 281Z" fill="#6397D9"/>
<path fill-rule="evenodd" clip-rule="evenodd" d="M640 277C640 278.657 645.373 280 652 280C658.627 280 664 278.657 664 277C664 275.343 658.627 274 652 274C645.373 274 640 275.343 640 277ZM677 280V283.986C677 283.986 676.93 286.45 672 288L673.179 283.682C673.179 283.682 676.642 282.187 677 280Z" fill="#162F44"/>
<path fill-rule="evenodd" clip-rule="evenodd" d="M619.006 280V284.085C619.006 284.085 618.616 286.128 624 288L622.348 283.234C622.348 283.234 619.488 281.957 619.006 280Z" fill="#8CC5F2"/>
<path fill-rule="evenodd" clip-rule="evenodd" d="M638 267.038L639.968 274.728C640.456 276.642 642.391 278 644.621 278H648.854C650.439 278 651.879 277.315 652.754 276.228C653.06 275.848 653.295 275.415 653.446 274.95L655.152 269.637L656 267L638 267.038Z" fill="#FC516B"/>
<path fill-rule="evenodd" clip-rule="evenodd" d="M638 266C638 266.552 642.03 267 647 267C651.97 267 656 266.552 656 266C656 265.448 651.97 265 647 265C642.03 265 638 265.448 638 266Z" fill="#9B293F"/>
<path fill-rule="evenodd" clip-rule="evenodd" d="M650.406 276.657C650.052 276.794 649.718 276.91 649.406 277L651.516 276.676C651.811 276.267 652.033 275.81 652.173 275.326L653.789 269.718C653.87 269.448 654 269.018 654 269C654 269 649.785 270.242 646 269.818C647.231 269.982 650.31 270.23 652.168 270.138C652.275 270.131 652.381 270.148 652.481 270.187C652.58 270.227 652.669 270.287 652.742 270.365C652.815 270.443 652.87 270.536 652.903 270.638C652.936 270.74 652.946 270.847 652.932 270.953C652.698 272.61 652.027 276.027 650.406 276.657" fill="#F995A9"/>
<path fill-rule="evenodd" clip-rule="evenodd" d="M646 263.901L646.679 266.988L647.173 267C647.173 267 647.201 263.901 650.847 262C654.497 260.1 653.974 253 653.974 253L653.971 253.009C653.883 253.192 652.483 256.109 651.422 256.299C650.328 256.501 649.649 258.249 649.649 258.249C649.649 258.249 649.127 258.999 648.502 258.849C647.876 258.699 647.251 260.349 647.251 260.349L647.044 262.101L646 263.901V263.901Z" fill="#51A595"/>
<path fill-rule="evenodd" clip-rule="evenodd" d="M650.993 269.987C650.993 269.987 651.693 246.551 639.393 240C639.393 240 635.892 241.352 639.993 246.967C644.093 252.582 640.792 256.637 642.593 258.094C644.393 259.549 646.993 260.485 646.593 262.357C646.193 264.229 646.693 266.101 647.493 266.309C648.293 266.516 650.093 267.621 650.373 270L650.993 269.987V269.987Z" fill="#4EC9B4"/>
<path fill-rule="evenodd" clip-rule="evenodd" d="M651 265.8L651.04 266.988L651.578 267C651.578 267 651.608 263.901 655.572 262C659.54 260.1 658.972 253 658.972 253L658.968 253.009L658.632 254.077C658.632 260.527 654.909 261.864 653.42 262.725C651.931 263.586 651 265.8 651 265.8" fill="#41877A"/>
<path fill-rule="evenodd" clip-rule="evenodd" d="M431.185 177.105C431.185 177.105 420.633 177.277 419.691 176L419 177.898C419 177.898 427.36 182.455 433 180.522L431.185 177.105V177.105Z" fill="#306299"/>
<path fill-rule="evenodd" clip-rule="evenodd" d="M446 190.916L433.412 205C433.412 205 416.59 189.918 417.008 185.19C417.425 180.463 423.588 170.675 433.042 179.667C442.24 188.415 446 190.916 446 190.916Z" fill="#8CC5F2"/>
<path fill-rule="evenodd" clip-rule="evenodd" d="M413.565 352.654L416.131 353C416.131 353 428.157 310.53 424.201 279.153C423.012 269.719 418.857 246 418.857 246L411 246.737C411.318 249.76 413.357 266.592 416.426 279.874C419.793 294.436 413.566 352.654 413.566 352.654" fill="#F4F2F9"/>
<path fill-rule="evenodd" clip-rule="evenodd" d="M427.253 175.558C428.741 175.882 429.552 175.985 430 176C429.302 175.034 428.516 173.818 428.168 172.842C427.375 170.601 427.369 168.512 427.369 168.512C427.369 168.512 424.398 167.73 424.092 168.099C423.788 168.467 424.092 174.869 427.253 175.558" fill="#E6846F"/>
<path fill-rule="evenodd" clip-rule="evenodd" d="M573 179C573 189.492 581.048 198 590.973 198C595.129 198 598.954 196.509 602 194.004V163.996C598.954 161.49 595.13 160 590.973 160C581.048 160 573 168.508 573 179Z" fill="#CEC3E2"/>
<path fill-rule="evenodd" clip-rule="evenodd" d="M573 179.5C573 189.716 580.493 198 589.734 198C593.604 198 597.164 196.548 600 194.11V164.89C597.165 162.453 593.603 161 589.734 161C580.493 161 573 169.284 573 179.5Z" fill="#C3B8D8"/>
<path fill-rule="evenodd" clip-rule="evenodd" d="M547 196.096C547 196.096 548.985 194.992 549.298 194.791C549.612 194.592 553.688 195.693 559.124 201.307C564.557 206.921 559.854 211.631 562.152 214.637C564.453 217.645 562.259 223.96 561.108 228.272C559.958 232.582 561.108 237.994 561.108 237.994L561.168 238L562.989 237.994C562.989 237.994 569.573 209.126 558.914 197.999C556.318 195.293 552.944 193.296 549.267 192L547 196.096Z" fill="#44AD99"/>
</g>
</svg>
