<svg width="708" height="495" viewBox="0 0 708 495" fill="none" xmlns="http://www.w3.org/2000/svg">
<path d="M194 319.5C194 222.574 272.574 144 369.5 144H708V495H369.5C272.574 495 194 416.426 194 319.5V319.5Z" fill="#4D61D2"/>
<g filter="url(#filter0_d)">
<path d="M592 10H66C51.6406 10 40 21.6406 40 36V369C40 383.359 51.6406 395 66 395H592C606.359 395 618 383.359 618 369V36C618 21.6406 606.359 10 592 10Z" fill="black"/>
</g>
<path d="M592 10H66C51.6406 10 40 21.6406 40 36V369C40 383.359 51.6406 395 66 395H592C606.359 395 618 383.359 618 369V36C618 21.6406 606.359 10 592 10Z" fill="#777777"/>
<path d="M591.23 12H67C53.1929 12 42 23.1929 42 37V368.865C42 382.672 53.1929 393.865 67 393.865H591.23C605.037 393.865 616.23 382.672 616.23 368.865V37C616.23 23.1929 605.037 12 591.23 12Z" fill="url(#paint0_linear)"/>
<path opacity="0.1" d="M560.493 26.303H99.0298C96.2684 26.303 94.0298 28.5416 94.0298 31.303V375.059C94.0298 377.82 96.2684 380.059 99.0298 380.059H560.493C563.254 380.059 565.493 377.82 565.493 375.059V31.303C565.493 28.5416 563.254 26.303 560.493 26.303Z" fill="#2A2A2A"/>
<mask id="mask0" mask-type="alpha" maskUnits="userSpaceOnUse" x="61" y="29" width="537" height="347">
<path d="M589.03 29.303H69.0298C64.6115 29.303 61.0298 32.8847 61.0298 37.303V367.303C61.0298 371.721 64.6115 375.303 69.0298 375.303H589.03C593.448 375.303 597.03 371.721 597.03 367.303V37.303C597.03 32.8847 593.448 29.303 589.03 29.303Z" fill="white"/>
</mask>
<g mask="url(#mask0)">
<path d="M589.03 29.303H69.0298C64.6115 29.303 61.0298 32.8847 61.0298 37.303V367.303C61.0298 371.721 64.6115 375.303 69.0298 375.303H589.03C593.448 375.303 597.03 371.721 597.03 367.303V37.303C597.03 32.8847 593.448 29.303 589.03 29.303Z" fill="#E8EAF6"/>
<path fill-rule="evenodd" clip-rule="evenodd" d="M57.5 29.5H604.5V88.5H57.5V29.5Z" fill="#5267DF"/>
<path opacity="0.245" d="M99.5 75.5C108.337 75.5 115.5 68.3366 115.5 59.5C115.5 50.6634 108.337 43.5 99.5 43.5C90.6634 43.5 83.5 50.6634 83.5 59.5C83.5 68.3366 90.6634 75.5 99.5 75.5Z" fill="white"/>
<path opacity="0.104" d="M560.5 75.5C569.337 75.5 576.5 68.3366 576.5 59.5C576.5 50.6634 569.337 43.5 560.5 43.5C551.663 43.5 544.5 50.6634 544.5 59.5C544.5 68.3366 551.663 75.5 560.5 75.5Z" fill="white"/>
<path opacity="0.75" d="M247.5 49.5H133.5C131.843 49.5 130.5 50.8431 130.5 52.5C130.5 54.1569 131.843 55.5 133.5 55.5H247.5C249.157 55.5 250.5 54.1569 250.5 52.5C250.5 50.8431 249.157 49.5 247.5 49.5Z" fill="white"/>
<path opacity="0.25" d="M191.5 63.5H133.5C131.843 63.5 130.5 64.8431 130.5 66.5C130.5 68.1569 131.843 69.5 133.5 69.5H191.5C193.157 69.5 194.5 68.1569 194.5 66.5C194.5 64.8431 193.157 63.5 191.5 63.5Z" fill="white"/>
<path d="M371.03 122.303H126.03C121.612 122.303 118.03 125.885 118.03 130.303V430.303C118.03 434.721 121.612 438.303 126.03 438.303H371.03C375.448 438.303 379.03 434.721 379.03 430.303V130.303C379.03 125.885 375.448 122.303 371.03 122.303Z" fill="white"/>
<path d="M533.03 122.303H421.03C416.612 122.303 413.03 125.885 413.03 130.303V430.303C413.03 434.721 416.612 438.303 421.03 438.303H533.03C537.448 438.303 541.03 434.721 541.03 430.303V130.303C541.03 125.885 537.448 122.303 533.03 122.303Z" fill="white"/>
<path opacity="0.5" d="M313.5 160.5H199.5C197.843 160.5 196.5 161.843 196.5 163.5C196.5 165.157 197.843 166.5 199.5 166.5H313.5C315.157 166.5 316.5 165.157 316.5 163.5C316.5 161.843 315.157 160.5 313.5 160.5Z" fill="#242A45"/>
</g>
<path d="M165.5 186.5C174.337 186.5 181.5 179.337 181.5 170.5C181.5 161.663 174.337 154.5 165.5 154.5C156.663 154.5 149.5 161.663 149.5 170.5C149.5 179.337 156.663 186.5 165.5 186.5Z" fill="#F98E5D"/>
<path opacity="0.25" d="M518.5 144.5H436.5C434.843 144.5 433.5 145.843 433.5 147.5C433.5 149.157 434.843 150.5 436.5 150.5H518.5C520.157 150.5 521.5 149.157 521.5 147.5C521.5 145.843 520.157 144.5 518.5 144.5Z" fill="#242A45"/>
<path opacity="0.25" d="M518.5 164.5H436.5C434.843 164.5 433.5 165.843 433.5 167.5C433.5 169.157 434.843 170.5 436.5 170.5H518.5C520.157 170.5 521.5 169.157 521.5 167.5C521.5 165.843 520.157 164.5 518.5 164.5Z" fill="#242A45"/>
<path opacity="0.25" d="M518.5 184.5H436.5C434.843 184.5 433.5 185.843 433.5 187.5C433.5 189.157 434.843 190.5 436.5 190.5H518.5C520.157 190.5 521.5 189.157 521.5 187.5C521.5 185.843 520.157 184.5 518.5 184.5Z" fill="#242A45"/>
<path opacity="0.25" d="M518.5 204.5H436.5C434.843 204.5 433.5 205.843 433.5 207.5C433.5 209.157 434.843 210.5 436.5 210.5H518.5C520.157 210.5 521.5 209.157 521.5 207.5C521.5 205.843 520.157 204.5 518.5 204.5Z" fill="#242A45"/>
<path opacity="0.25" d="M518.5 238.5H436.5C434.843 238.5 433.5 239.843 433.5 241.5C433.5 243.157 434.843 244.5 436.5 244.5H518.5C520.157 244.5 521.5 243.157 521.5 241.5C521.5 239.843 520.157 238.5 518.5 238.5Z" fill="#242A45"/>
<path opacity="0.25" d="M518.5 258.5H436.5C434.843 258.5 433.5 259.843 433.5 261.5C433.5 263.157 434.843 264.5 436.5 264.5H518.5C520.157 264.5 521.5 263.157 521.5 261.5C521.5 259.843 520.157 258.5 518.5 258.5Z" fill="#242A45"/>
<path opacity="0.25" d="M518.5 278.5H436.5C434.843 278.5 433.5 279.843 433.5 281.5C433.5 283.157 434.843 284.5 436.5 284.5H518.5C520.157 284.5 521.5 283.157 521.5 281.5C521.5 279.843 520.157 278.5 518.5 278.5Z" fill="#242A45"/>
<path opacity="0.25" d="M257.5 174.5H199.5C197.843 174.5 196.5 175.843 196.5 177.5C196.5 179.157 197.843 180.5 199.5 180.5H257.5C259.157 180.5 260.5 179.157 260.5 177.5C260.5 175.843 259.157 174.5 257.5 174.5Z" fill="#242A45"/>
<path d="M165.5 242.5C174.337 242.5 181.5 235.337 181.5 226.5C181.5 217.663 174.337 210.5 165.5 210.5C156.663 210.5 149.5 217.663 149.5 226.5C149.5 235.337 156.663 242.5 165.5 242.5Z" fill="#6AC6D6"/>
<path opacity="0.5" d="M313.5 216.5H199.5C197.843 216.5 196.5 217.843 196.5 219.5C196.5 221.157 197.843 222.5 199.5 222.5H313.5C315.157 222.5 316.5 221.157 316.5 219.5C316.5 217.843 315.157 216.5 313.5 216.5Z" fill="#242A45"/>
<path opacity="0.25" d="M257.5 230.5H199.5C197.843 230.5 196.5 231.843 196.5 233.5C196.5 235.157 197.843 236.5 199.5 236.5H257.5C259.157 236.5 260.5 235.157 260.5 233.5C260.5 231.843 259.157 230.5 257.5 230.5Z" fill="#242A45"/>
<path d="M165.5 298.5C174.337 298.5 181.5 291.337 181.5 282.5C181.5 273.663 174.337 266.5 165.5 266.5C156.663 266.5 149.5 273.663 149.5 282.5C149.5 291.337 156.663 298.5 165.5 298.5Z" fill="#A47ED4"/>
<path opacity="0.5" d="M313.5 272.5H199.5C197.843 272.5 196.5 273.843 196.5 275.5C196.5 277.157 197.843 278.5 199.5 278.5H313.5C315.157 278.5 316.5 277.157 316.5 275.5C316.5 273.843 315.157 272.5 313.5 272.5Z" fill="#242A45"/>
<path opacity="0.25" d="M257.5 286.5H199.5C197.843 286.5 196.5 287.843 196.5 289.5C196.5 291.157 197.843 292.5 199.5 292.5H257.5C259.157 292.5 260.5 291.157 260.5 289.5C260.5 287.843 259.157 286.5 257.5 286.5Z" fill="#242A45"/>
<path d="M165.5 354.5C174.337 354.5 181.5 347.337 181.5 338.5C181.5 329.663 174.337 322.5 165.5 322.5C156.663 322.5 149.5 329.663 149.5 338.5C149.5 347.337 156.663 354.5 165.5 354.5Z" fill="#EC7878"/>
<path opacity="0.5" d="M313.5 328.5H199.5C197.843 328.5 196.5 329.843 196.5 331.5C196.5 333.157 197.843 334.5 199.5 334.5H313.5C315.157 334.5 316.5 333.157 316.5 331.5C316.5 329.843 315.157 328.5 313.5 328.5Z" fill="#242A45"/>
<path opacity="0.25" d="M257.5 342.5H199.5C197.843 342.5 196.5 343.843 196.5 345.5C196.5 347.157 197.843 348.5 199.5 348.5H257.5C259.157 348.5 260.5 347.157 260.5 345.5C260.5 343.843 259.157 342.5 257.5 342.5Z" fill="#242A45"/>
<defs>
<filter id="filter0_d" x="0" y="0" width="658" height="465" filterUnits="userSpaceOnUse" color-interpolation-filters="sRGB">
<feFlood flood-opacity="0" result="BackgroundImageFix"/>
<feColorMatrix in="SourceAlpha" type="matrix" values="0 0 0 0 0 0 0 0 0 0 0 0 0 0 0 0 0 0 127 0"/>
<feOffset dy="30"/>
<feGaussianBlur stdDeviation="20"/>
<feColorMatrix type="matrix" values="0 0 0 0 0.182433 0 0 0 0 0.230633 0 0 0 0 0.506058 0 0 0 0.20012 0"/>
<feBlend mode="normal" in2="BackgroundImageFix" result="effect1_dropShadow"/>
<feBlend mode="normal" in="SourceGraphic" in2="effect1_dropShadow" result="shape"/>
</filter>
<linearGradient id="paint0_linear" x1="610.562" y1="285.702" x2="151.349" y2="-19.6735" gradientUnits="userSpaceOnUse">
<stop stop-color="#151515"/>
<stop offset="1" stop-color="#3D3D3D"/>
</linearGradient>
</defs>
</svg>
