<svg width="41" height="41" viewBox="0 0 41 41" fill="none" xmlns="http://www.w3.org/2000/svg">
<path d="M24.875 11.75H16.125C13.7088 11.75 11.75 13.7088 11.75 16.125V24.875C11.75 27.2912 13.7088 29.25 16.125 29.25H24.875C27.2912 29.25 29.25 27.2912 29.25 24.875V16.125C29.25 13.7088 27.2912 11.75 24.875 11.75Z" stroke="white" stroke-width="2" stroke-linecap="round" stroke-linejoin="round"/>
<path d="M24 19.9488C24.108 20.677 23.9836 21.4207 23.6445 22.0742C23.3055 22.7276 22.769 23.2575 22.1114 23.5885C21.4538 23.9195 20.7086 24.0347 19.9818 23.9177C19.255 23.8008 18.5835 23.4576 18.063 22.937C17.5424 22.4165 17.1993 21.745 17.0823 21.0182C16.9653 20.2914 17.0805 19.5462 17.4115 18.8886C17.7425 18.231 18.2724 17.6945 18.9258 17.3555C19.5793 17.0164 20.323 16.892 21.0512 17C21.794 17.1102 22.4817 17.4563 23.0127 17.9873C23.5437 18.5183 23.8898 19.206 24 19.9488Z" stroke="white" stroke-width="2" stroke-linecap="round" stroke-linejoin="round"/>
<path d="M25.3125 15.6875H25.3212" stroke="white" stroke-width="2" stroke-linecap="round" stroke-linejoin="round"/>
<circle cx="20.5" cy="20.5" r="19.5" stroke="white" stroke-width="2"/>
</svg>
