<svg width="41" height="41" viewBox="0 0 41 41" fill="none" xmlns="http://www.w3.org/2000/svg">
<path d="M30 13.0084C29.173 13.5731 28.2573 14.0049 27.2882 14.2874C26.768 13.7085 26.0768 13.2982 25.3079 13.112C24.539 12.9258 23.7296 12.9726 22.9891 13.2462C22.2486 13.5198 21.6127 14.0069 21.1676 14.6416C20.7224 15.2764 20.4894 16.0281 20.5 16.7953V17.6312C18.9823 17.6693 17.4784 17.3435 16.1222 16.6828C14.7661 16.0221 13.5998 15.047 12.7273 13.8444C12.7273 13.8444 9.27273 21.3679 17.0455 24.7117C15.2668 25.8803 13.148 26.4663 11 26.3836C18.7727 30.5633 28.2727 26.3836 28.2727 16.7702C28.2719 16.5373 28.2488 16.305 28.2036 16.0763C29.0851 15.235 29.7071 14.1726 30 13.0084V13.0084Z" fill="white"/>
<circle cx="20.5" cy="20.5" r="19.5" stroke="white" stroke-width="2"/>
</svg>
